<svg width="86" height="86" viewBox="0 0 86 86" fill="none" xmlns="http://www.w3.org/2000/svg">
<path d="M57.1543 0C67.3576 0 72.4596 0.000411051 76.3428 2.01758C79.6148 3.71737 82.2826 6.3852 83.9824 9.65723C85.9996 13.5404 86 18.6424 86 28.8457V57.1543C86 67.3576 85.9996 72.4596 83.9824 76.3428C82.2826 79.6148 79.6148 82.2826 76.3428 83.9824C72.4596 85.9996 67.3576 86 57.1543 86H28.8457C18.6424 86 13.5404 85.9996 9.65723 83.9824C6.3852 82.2826 3.71737 79.6148 2.01758 76.3428C0.000411051 72.4596 0 67.3576 0 57.1543V28.8457C0 18.6424 0.000410925 13.5404 2.01758 9.65723C3.71737 6.3852 6.3852 3.71737 9.65723 2.01758C13.5404 0.000410925 18.6424 0 28.8457 0H57.1543ZM52.626 44C50.3623 45.8422 48.1429 48.0088 45.9053 49.9326C42.4701 52.8864 42.9593 52.5052 39.9131 49.9111C37.6497 47.9837 35.436 45.9942 33.2314 44C32.8313 44.3408 32.4718 44.7336 32.1035 45.1084L14.9941 62.5879C14.6671 62.9286 14.2827 63.2558 14 63.6318C15.629 65.2419 17.6947 64.985 19.791 64.9844L25.6035 64.9834L67.1064 64.9873C69.2151 64.9912 70.0595 64.8692 72 63.7979C71.5753 63.2654 71.0749 62.779 70.6064 62.2832C69.6186 61.2377 52.7517 44.0326 52.626 44ZM11.7676 25C10.7419 27.0514 11.0395 29.6383 11.042 31.874V56.6143C11.0404 58.8193 10.8181 59.9386 11.6162 62C12.4997 60.6443 14.1362 59.142 15.2598 57.9492C16.9418 56.1637 18.5663 54.3195 20.2832 52.5693L27.0215 45.2451C28.0008 44.1904 28.9353 43.0368 30 42.0791C29.4722 41.5298 28.8954 41.0348 28.3398 40.5176L15.5059 28.5176C14.2733 27.3396 13.0469 26.121 11.7676 25ZM74.2725 25C73.3498 25.7304 72.5105 26.5945 71.623 27.3701L55.9443 41.2402C55.6326 41.5181 55.2887 41.7782 55 42.0791C56.1428 43.4381 57.6221 44.77 58.8828 46.0518C61.0146 48.2188 63.1179 50.4195 65.2666 52.5693L71.7021 59.1123C72.65 60.0681 73.5538 61.1413 74.5908 62C75.0434 60.7795 74.9994 59.6787 74.998 58.4004L74.9951 29.7256C74.9951 28.8762 74.9609 25.2291 74.2725 25ZM72 22.4668C70.2161 20.9619 67.641 20.8895 65.4033 21.0703L18.7998 21.0693C17.0474 21.0692 15.3172 21.0424 14 22.4668L31.2041 38.127L39.8408 46.0889C40.8817 47.0477 41.8812 48.0765 42.9502 49C44.3597 47.6386 45.772 46.387 47.2002 45.0596L67.6807 26.334C69.1201 25.0448 70.5068 23.6904 72 22.4668Z" fill="black"/>
</svg>
