<svg width="86" height="86" viewBox="0 0 86 86" fill="none" xmlns="http://www.w3.org/2000/svg">
<path d="M57.1543 0C67.3576 0 72.4596 0.000411051 76.3428 2.01758C79.6148 3.71737 82.2826 6.3852 83.9824 9.65723C85.9996 13.5404 86 18.6424 86 28.8457V57.1543C86 67.3576 85.9996 72.4596 83.9824 76.3428C82.2826 79.6148 79.6148 82.2826 76.3428 83.9824C72.4596 85.9996 67.3576 86 57.1543 86H28.8457C18.6424 86 13.5404 85.9996 9.65723 83.9824C6.3852 82.2826 3.71737 79.6148 2.01758 76.3428C0.000411051 72.4596 0 67.3576 0 57.1543V28.8457C0 18.6424 0.000410925 13.5404 2.01758 9.65723C3.71737 6.3852 6.3852 3.71737 9.65723 2.01758C13.5404 0.000410925 18.6424 0 28.8457 0H57.1543ZM12.7998 32.2207V73.2002H25.8066V32.2207H12.7998ZM58.4453 31.1748C49.3162 31.1748 45.9609 37.8857 45.9609 37.8857V32.2207H33.5957V73.2002H46.6035V51.4805C46.6035 47.7859 47.6461 42.5322 53.7363 42.5322C56.6708 42.5323 60.5214 43.3261 60.5215 50.5391V73.2002H73.335V47.415C73.335 35.1871 66.5888 31.1749 58.4453 31.1748ZM19.3027 11.7871C15.1826 11.7873 11.8428 15.1269 11.8428 19.2471C11.8428 23.3673 15.1826 26.7078 19.3027 26.708C23.423 26.708 26.7637 23.3674 26.7637 19.2471C26.7636 15.1268 23.423 11.7871 19.3027 11.7871Z" fill="black"/>
</svg>
