<?xml version="1.0" encoding="UTF-8" standalone="no" ?>
<!DOCTYPE svg PUBLIC "-//W3C//DTD SVG 1.1//EN" "http://www.w3.org/Graphics/SVG/1.1/DTD/svg11.dtd">
<svg xmlns="http://www.w3.org/2000/svg" xmlns:xlink="http://www.w3.org/1999/xlink" version="1.1" width="1280" height="1024" viewBox="0 0 1280 1024" xml:space="preserve">
<desc>Created with Fabric.js 5.3.0</desc>
<defs>
</defs>
<g transform="matrix(1 0 0 1 640 512)" id="background-logo"  >
<rect style="stroke: none; stroke-width: 0; stroke-dasharray: none; stroke-linecap: butt; stroke-dashoffset: 0; stroke-linejoin: miter; stroke-miterlimit: 4; fill: rgb(255,255,255); fill-opacity: 0; fill-rule: nonzero; opacity: 1;"  paint-order="stroke"  x="-640" y="-512" rx="0" ry="0" width="1280" height="1024" />
</g>
<g transform="matrix(0.21371761186730748 0.003730454791447457 -0.003730454791447457 0.21371761186730748 763.9937542354885 641.3661805744485)" id="shape-d76408f8-d4c2-4d61-a4a9-b82bf7649d31"  >
<g style=""  paint-order="stroke"   >
		<g transform="matrix(1 0 0 1 0 -1.421085e-14)" id="Layer_1"  >
<path style="stroke: none; stroke-width: 1; stroke-dasharray: none; stroke-linecap: butt; stroke-dashoffset: 0; stroke-linejoin: miter; stroke-miterlimit: 4; fill: rgb(0,0,0); fill-rule: nonzero; opacity: 1;"  paint-order="stroke"  transform=" translate(-32.39204459783229, -124.99999999999997)" d="M 52.3747 157.84813 C 62.50933 146.684 64.17354 142.8564 64.4231 127.86076 C 64.49187 123.72816 64.28075000000001 119.30738 63.647130000000004 115.21498 C 62.629450000000006 117.70445 41.923080000000006 139.7422 40.79393 138.41873999999999 C 49.50453 129.29198 57.02257 119.14272999999999 63.535540000000005 108.36625999999998 L 63.07571000000001 101.72926999999999 L 50.24408000000001 117.88268 C 58.68319000000001 107.28876 65.11539 96.3784 63.93623000000001 82.36384 C 63.00523000000001 80.7126 60.45723000000001 88.41095 59.288120000000006 88.05345 C 66.84155000000001 76.5074 64.86205000000001 62.08593 63.45349000000001 49.02814 L 54.41975000000001 69.07239 L 61.783860000000004 38.834059999999994 C 58.21806 25.436369999999993 55.23794 10.878209999999992 46.03114000000001 0.000009999999996068709 C 41.67139000000001 9.603109999999996 36.20028000000001 18.708189999999995 31.735580000000006 28.253719999999998 C 24.854750000000006 42.96489 20.806940000000004 50.18487999999999 21.137760000000007 66.89887 C 21.243690000000008 72.25114 22.078930000000007 77.63782 22.563620000000007 82.96542 L 17.12084000000001 61.47174 C 14.998320000000009 68.49248 11.864880000000008 75.20268999999999 9.69880000000001 82.2051 C 4.849370000000009 97.88199 2.351560000000009 104.97302 8.25777000000001 121.00412 C 9.798940000000009 125.18716 11.83953000000001 129.32774 14.202660000000009 133.12915 L 2.3636100000000084 117.19594000000001 C 2.2850900000000083 124.19500000000001 -0.5276399999999914 135.66077 0.6994000000000085 142.29745 C 2.5550000000000086 152.33419 10.493530000000007 163.93957 16.25781000000001 172.18644 C 9.49345000000001 167.38544000000002 4.60546000000001 160.49742 -0.000009999999988963282 153.69414 C 0.9409200000000111 172.06345 12.596490000000012 188.41788 27.597000000000012 198.23576 C 27.776020000000013 214.04617 28.223130000000012 231.11139 29.008120000000012 249.52242999999999 C 29.017380000000013 249.73586999999998 29.16113000000001 249.92006999999998 29.366290000000014 249.97951999999998 C 29.412580000000013 249.99316 29.459850000000014 249.99998999999997 29.506630000000012 249.99998999999997 C 29.665980000000012 249.99998999999997 29.819970000000012 249.92299999999997 29.91499000000001 249.78751999999997 L 33.05178000000001 245.32476999999997 C 34.803160000000005 242.83365999999998 35.65400000000001 239.78994999999998 35.44640000000001 236.75694999999996 C 35.01788000000001 230.49664999999996 34.12525000000001 215.92673999999997 33.564670000000014 196.21312999999998 C 45.392690000000016 184.17105999999998 58.666120000000014 168.05132999999998 61.139930000000014 151.08504 C 54.897050000000014 158.33981 47.95166000000002 165.30840999999998 39.58948000000001 170.15717 C 43.84890000000001 166.09371000000002 48.41606000000001 162.2089 52.37469000000001 157.84812 Z M 54.9221 102.94948 C 50.36189 111.21808999999999 44.74812 118.87709 38.23673 125.71351 C 38.138290000000005 125.81681999999999 38.00672 125.86847 37.875150000000005 125.86847 C 37.75137000000001 125.86847 37.62760000000001 125.82266 37.531110000000005 125.73105 C 37.33131 125.54051 37.32352 125.22474 37.51357000000001 125.02543 C 43.96648000000001 118.2509 49.52957000000001 110.6611 54.04885000000001 102.46705 C 54.182370000000006 102.22535 54.48743000000001 102.13958 54.72621000000001 102.27115 C 54.96791000000001 102.40418000000001 55.05563000000001 102.70778 54.92211000000001 102.94948000000001 Z M 29.94327 248.01179 C 24.684749999999998 122.30138999999998 35.11408 59.31949 40.20058 36.97601 C 27.5043 121.18741 33.14195 217.70329 34.45037 236.82519 C 34.64237 239.6311 33.85586 242.44577999999998 32.235079999999996 244.75171 L 29.943279999999998 248.01179 Z M 40.81751 81.85156 C 46.4995 74.91622000000001 50.76538 66.68318000000001 53.15221 58.042260000000006 C 53.226279999999996 57.776680000000006 53.503069999999994 57.62220000000001 53.76622 57.694320000000005 C 54.032289999999996 57.767900000000004 54.18823 58.04274 54.11512999999999 58.308330000000005 C 51.69028999999999 67.08179000000001 47.35911999999999 75.44153 41.589409999999994 82.48408 C 41.49097 82.60444000000001 41.34770999999999 82.66682 41.20345999999999 82.66682 C 41.092349999999996 82.66682 40.98026999999999 82.62978 40.88768999999999 82.55376 C 40.674249999999994 82.3793 40.64305999999999 82.0645 40.817519999999995 81.85155 Z M 58.99013 77.60956 C 59.03204 77.33667 59.28154 77.151 59.5593 77.19194 C 59.83122 77.23385 60.01834 77.48822 59.97643 77.76063 C 58.98622 84.21208 55.06146 89.68843000000001 51.12597 94.74472 C 47.70411 99.14071 44.1224 103.48602 40.48028 107.6598 C 40.381840000000004 107.77286000000001 40.24345 107.83084000000001 40.10408 107.83084000000001 C 39.98713 107.83084000000001 39.87017 107.79039 39.77564 107.70804000000001 C 39.56805 107.52676000000001 39.54661 107.21147 39.727880000000006 107.00388000000001 C 43.35734000000001 102.84375000000001 46.92734000000001 98.51306000000001 50.33849000000001 94.13168000000002 C 54.19308000000001 89.17919000000002 58.03598000000001 83.82369000000001 58.99013000000001 77.60956000000002 Z M 53.71553 33.84068 C 53.7857 33.57559 54.05664 33.4138 54.32661 33.48738 C 54.59268 33.558530000000005 54.751540000000006 33.83191 54.68039 34.097970000000004 C 52.23801 43.24325 47.940940000000005 52.07567 42.25213 59.64159000000001 C 42.15467 59.77219000000001 42.004580000000004 59.840900000000005 41.85351 59.840900000000005 C 41.74825 59.840900000000005 41.64397 59.80825000000001 41.55333 59.74051000000001 C 41.33307 59.57531000000001 41.289210000000004 59.262460000000004 41.454890000000006 59.04220000000001 C 47.06671000000001 51.57764000000001 51.306270000000005 42.86314000000001 53.715520000000005 33.84067 Z M 14.58093 86.04142 C 14.62479 85.76950000000001 14.88062 85.58189 15.153030000000001 85.62818 C 15.42495 85.67204 15.610120000000002 85.92787 15.566270000000001 86.20028 C 13.053230000000001 101.81211 15.63108 118.16611 22.82421 132.24926 C 22.949450000000002 132.49486 22.85199 132.79504 22.60687 132.92077 C 22.53426 132.95781 22.456780000000002 132.97535 22.38027 132.97535 C 22.1985 132.97535 22.02356 132.87593999999999 21.93536 132.70343 C 14.64623 118.43267 12.034759999999999 101.86133 14.580929999999999 86.04141999999999 Z M 6.2519 134.4012 C 6.18904 134.13317999999998 6.35521 133.86418999999998 6.62323 133.80181 C 6.89027 133.73456 7.16024 133.90413999999998 7.223590000000001 134.17314 C 10.039250000000001 146.12676 14.989790000000001 157.32310999999999 21.93683 167.45031 C 22.09277 167.67837 22.03527 167.9883 21.80769 168.14423 C 21.72144 168.20368 21.62349 168.23194999999998 21.526030000000002 168.23194999999998 C 21.36717 168.23194999999998 21.21074 168.15592999999998 21.11426 168.01558999999997 C 14.096560000000002 157.78605999999996 9.09631 146.47664999999998 6.251910000000002 134.40119999999996 Z M 22.84175 190.22214 C 22.7438 190.35079 22.59469 190.41901 22.444110000000002 190.41901 C 22.33885 190.41901 22.233110000000003 190.38586999999998 22.142470000000003 190.31765 C 16.221210000000003 185.81590999999997 11.682930000000002 179.76746999999997 9.017360000000004 172.82334999999998 C 8.918440000000004 172.56703 9.047090000000004 172.27756999999997 9.304380000000004 172.17913 C 9.561190000000003 172.07971999999998 9.850650000000003 172.20836999999997 9.949090000000004 172.46663999999998 C 12.510860000000005 179.13884 17.055960000000002 185.19702999999998 22.746730000000003 189.52236 C 22.966020000000004 189.68999 23.00841 190.00284 22.841750000000005 190.22213 Z M 30.17084 38.48081 C 30.24052 38.21377 30.515849999999997 38.05685 30.77949 38.12361 C 31.046049999999997 38.19329 31.20588 38.4657 31.136689999999998 38.73226 C 27.729439999999997 51.813019999999995 26.851319999999998 65.81187 28.596359999999997 79.21572 C 28.631929999999997 79.48910000000001 28.439449999999997 79.73909 28.166069999999998 79.77466000000001 C 28.144139999999997 79.77758000000001 28.1227 79.77905000000001 28.101259999999996 79.77905000000001 C 27.854199999999995 79.77905000000001 27.639779999999995 79.59582000000002 27.607129999999998 79.34437000000001 C 25.845029999999998 65.81480000000002 26.73144 51.68438000000001 30.170849999999998 38.48081000000001 Z M 50.80826 164.89001 C 50.95932 164.65707999999998 51.27023 164.5947 51.49829 164.74186999999998 C 51.73025 164.89195999999998 51.79555 165.20090999999996 51.646429999999995 165.43189999999998 C 47.09694 172.45300999999998 41.892509999999994 179.10669 36.17932999999999 185.20775999999998 C 36.08089 185.31301999999997 35.94834999999999 185.36565 35.81481999999999 185.36565 C 35.69201999999999 185.36565 35.57018999999999 185.32082 35.47370999999999 185.23114999999999 C 35.27293999999999 185.04208 35.26221999999999 184.72629999999998 35.45031999999999 184.52552999999997 C 41.124509999999994 178.46733999999998 46.29093999999999 171.86140999999998 50.80825999999999 164.89000999999996 Z M 37.23775 160.10271 C 37.13931 160.22356 36.99605 160.28691 36.850829999999995 160.28691 C 36.73972 160.28691 36.62862 160.25085 36.53603 160.17483000000001 C 36.32259 160.00135 36.289449999999995 159.68752 36.46391 159.47311000000002 C 40.24736 154.81446000000003 44.02203 150.07005 47.68365 145.37242000000003 C 50.88428 141.26540000000003 53.440690000000004 137.79188000000002 54.80417 133.62736000000004 C 54.889939999999996 133.36519000000004 55.1716 133.22387000000003 55.43377 133.30769000000004 C 55.69594 133.39346000000003 55.83921 133.67609000000004 55.753440000000005 133.93729000000005 C 54.226220000000005 138.59984000000006 51.035340000000005 142.69516000000004 48.47113 145.98643000000004 C 44.80561 150.68894000000003 41.02606 155.43920000000003 37.237750000000005 160.10272000000003 Z" stroke-linecap="round" />
</g>
</g>
</g>
<g transform="matrix(1.9211538461538458 0 0 1.9211538461538458 639.9999999999999 388.5274423076924)" id="logo-logo"  >
<g style=""  paint-order="stroke"   >
		<g transform="matrix(0.40951850231236153 0 0 0.40951850231236153 0 5.165022271872829)"  >
<path style="stroke: none; stroke-width: 1; stroke-dasharray: none; stroke-linecap: butt; stroke-dashoffset: 0; stroke-linejoin: miter; stroke-miterlimit: 4; fill: rgb(84,84,85); fill-rule: nonzero; opacity: 1;"  paint-order="stroke"  transform=" translate(-499.9999998999999, -512.61242715)" d="M 714.1483502 276.9725884 L 677.8502432 276.9725884 L 506.1902761 448.63306420000004 L 390.9199758 333.36352710000006 L 365.2532498 359.03050750000006 C 351.2110353 373.07246760000004 351.2110353 395.83917110000004 365.2532498 409.8811312 L 499.06436099999996 543.691988 C 537.3650097999999 581.9926368 537.8127326 643.8119599 500.4085469 682.6628499000001 C 461.8209485 722.7414161 396.4839489 721.7922947000001 357.14336219999996 682.4522167000001 L 300.98874989999996 626.2968412000001 L 249.89544009999997 677.3891334000001 L 270.53139009999995 698.0240659000001 C 337.5025777999999 764.9949992 446.08349269999997 764.9949992 513.0546803999999 698.0240659000001 L 513.0556979999999 698.0225396000001 C 574.4669827999999 636.6115092000001 579.5211625 540.2351103000001 528.3067639999999 473.01462240000006 L 677.8502431999999 323.47114320000003 L 677.8502431999999 748.2522659000001 L 750.1045596999999 748.2522659000001 L 750.1045596999999 312.92956120000014 C 750.1045596999999 293.07102070000013 734.0068905999999 276.97258850000014 714.1483500999999 276.97258850000014 Z" stroke-linecap="round" />
</g>
		<g transform="matrix(0.40951850231236153 0 0 0.40951850231236153 -34.847322968579135 -16.711601679886286)"  >
<path style="stroke: none; stroke-width: 1; stroke-dasharray: none; stroke-linecap: butt; stroke-dashoffset: 0; stroke-linejoin: miter; stroke-miterlimit: 4; fill: rgb(127,216,88); fill-rule: nonzero; opacity: 1;"  paint-order="stroke"  transform=" translate(-414.9065968625, -459.1920717124999)" d="M 430.5760038 666.6364093 L 456.2427298 640.9696832999999 C 470.2849443 626.9274687999999 470.2849443 604.1610196999999 456.2427298 590.1188051999999 L 322.43263620000005 456.3082027999999 C 284.13198740000007 418.0075539999999 283.68324700000005 356.1882308999999 321.08845030000003 317.3373408999999 C 359.67503120000003 277.2585202999999 425.01304830000004 278.2078960999999 464.35261750000006 317.5477196999999 L 520.5082474000001 373.7033495999999 L 571.6005396 322.61105739999994 L 550.9656071 301.97612489999995 C 483.9944194000001 235.00493719999994 375.41248700000006 235.00493719999994 308.44231680000007 301.97612489999995 L 308.44028170000007 301.97739679999995 C 241.47011160000005 368.9485844999999 241.47011160000005 477.53000819999994 308.44028170000007 544.5009415 L 430.5760038000001 666.6364092 Z" stroke-linecap="round" />
</g>
</g>
</g>
<g transform="matrix(1.9211538461538453 0 0 1.9211538461538453 641.9992007211537 692.8732288861679)" id="text-logo"  >
<g style=""  paint-order="stroke"   >
		<g transform="matrix(1 0 0 1 0 0)" id="text-logo-path-0"  >
<path style="stroke: rgb(255,255,255); stroke-width: 0; stroke-dasharray: none; stroke-linecap: butt; stroke-dashoffset: 0; stroke-linejoin: miter; stroke-miterlimit: 4; fill: rgb(0,0,0); fill-rule: nonzero; opacity: 1;"  paint-order="stroke"  transform=" translate(-211.145, 21.3)" d="M 4.13 -7.09 L 3.25 -6.3 C 5.04 -4.51 7.27 -2.96 9.87 -1.67 C 12.48 -0.35 15.56 0.29 19.07 0.29 C 22.44 0.29 26.37 -0.41 29.47 -2.2 C 32.58 -3.98 34.8 -6.74 34.8 -10.99 C 34.8 -19.66 26.46 -21.91 18.78 -21.91 C 12.22 -21.91 5.04 -23.76 5.04 -31.93 C 5.19 -39.2 11.92 -41.69 18.6 -41.69 C 23.12 -41.69 27.95 -40.52 30.73 -36.47 L 31.85 -36.97 C 29.21 -40.78 25.61 -42.89 18.6 -42.89 C 11.89 -42.89 3.84 -40.05 3.84 -31.93 C 3.84 -23.23 11.07 -20.71 18.78 -20.71 C 25.17 -20.71 33.6 -19.1 33.6 -10.99 C 33.6 -3.63 25.63 -0.91 19.07 -0.91 C 13.59 -0.91 8 -3.05 4.13 -7.09 Z M 50.68 0 L 51.88 0 L 51.88 -39.96 L 70.78 -8.41 L 71.75 -8.41 L 90.64 -39.96 L 90.64 0 L 91.84 0 L 91.84 -42.6 L 90.88 -42.6 L 71.25 -9.84 L 51.62 -42.6 L 50.68 -42.6 Z M 109.59 0 L 137.54 0 L 137.54 -1.2 L 110.8 -1.2 L 110.8 -21.18 L 133.76 -21.18 L 133.76 -22.38 L 110.8 -22.38 L 110.8 -41.4 L 137.02 -41.4 L 137.02 -42.6 L 109.59 -42.6 Z M 150.78 0 L 178.73 0 L 178.73 -1.2 L 151.98 -1.2 L 151.98 -42.6 L 150.78 -42.6 Z M 192 0 L 219.95 0 L 219.95 -1.2 L 193.2 -1.2 L 193.2 -42.6 L 192 -42.6 Z M 233.1 0 L 234.3 0 L 234.3 -21.24 L 257.27 -21.24 L 257.27 -22.44 L 234.3 -22.44 L 234.3 -41.4 L 260.52 -41.4 L 260.52 -42.6 L 233.1 -42.6 Z M 273.71 0 L 274.91 0 L 274.91 -42.54 L 273.71 -42.54 Z M 290.23 -21.3 C 290.23 -10.75 298.52 0.29 310.32 0.29 C 316.18 0.29 321.63 -2.46 325.7 -7.27 L 325.7 0 L 326.91 0 L 326.91 -20.27 L 315.69 -20.27 L 315.69 -19.07 L 325.7 -19.07 L 325.7 -9.84 C 324.88 -7.12 322.48 -4.89 319.52 -3.34 C 316.56 -1.79 313.05 -0.91 310.32 -0.91 C 299.86 -0.91 291.43 -10.58 291.43 -21.3 C 291.4 -31.38 298.46 -41.72 309.62 -41.69 C 316.27 -41.69 321.46 -39.26 324.74 -33.25 L 325.88 -33.6 C 323.16 -39.02 318.5 -42.89 309.62 -42.89 C 303.91 -42.89 299.07 -40.28 295.68 -36.27 C 292.28 -32.26 290.23 -26.81 290.23 -21.3 Z M 339.35 -41.4 L 355.67 -41.4 L 355.67 0 L 356.87 0 L 356.87 -41.4 L 373.19 -41.4 L 373.19 -42.6 L 339.35 -42.6 Z M 383.33 -42.6 L 400.55 -16.61 L 400.55 0 L 401.75 0 L 401.75 -16.49 L 419.04 -42.6 L 417.63 -42.6 L 401.14 -17.87 L 384.7 -42.6 Z" stroke-linecap="round" />
</g>
</g>
</g>
<g transform="matrix(1 0 0 1 324.9999999999999 419.1145753730554)" id="tagline-b09ee964-28eb-49be-b227-ea43f80f8d01-logo"  >
<g style=""  paint-order="stroke"   >
		<g transform="matrix(1 0 0 1 0 0)" id="tagline-b09ee964-28eb-49be-b227-ea43f80f8d01-logo-path-0"  >
<path style="stroke: none; stroke-width: 0; stroke-dasharray: none; stroke-linecap: butt; stroke-dashoffset: 0; stroke-linejoin: miter; stroke-miterlimit: 4; fill: rgb(115,110,102); fill-rule: nonzero; opacity: 1;"  paint-order="stroke"  transform=" translate(0, 0)" d="" stroke-linecap="round" />
</g>
</g>
</g>
</svg>