<svg width="86" height="86" viewBox="0 0 86 86" fill="none" xmlns="http://www.w3.org/2000/svg">
<g clip-path="url(#clip0_50_687)">
<path d="M57.1543 0C67.3576 0 72.4596 0.000411051 76.3428 2.01758C79.6148 3.71737 82.2826 6.3852 83.9824 9.65723C85.9996 13.5404 86 18.6424 86 28.8457V57.1543C86 67.3576 85.9996 72.4596 83.9824 76.3428C82.2826 79.6148 79.6148 82.2826 76.3428 83.9824C72.4596 85.9996 67.3576 86 57.1543 86H28.8457C18.6424 86 13.5404 85.9996 9.65723 83.9824C6.3852 82.2826 3.71737 79.6148 2.01758 76.3428C0.000411051 72.4596 0 67.3576 0 57.1543V28.8457C0 18.6424 0.000410925 13.5404 2.01758 9.65723C3.71737 6.3852 6.3852 3.71737 9.65723 2.01758C13.5404 0.000410925 18.6424 0 28.8457 0H57.1543ZM69.4111 24.3008C70.3138 20.6816 68.0308 19.04 65.666 20.1133L13.8906 40.083C10.3569 41.5008 10.3775 43.4717 13.2461 44.3506L26.1592 48.3818L31.0996 63.5293C31.7003 65.1872 31.4047 65.8457 33.1455 65.8457C34.4891 65.8457 35.0857 65.233 35.834 64.502C36.3099 64.0362 39.1352 61.289 42.29 58.2217L55.7217 68.1455C58.1933 69.5091 59.9782 68.8031 60.5938 65.8506L69.4111 24.3008ZM57.292 29.0918C58.7448 28.2108 60.0768 28.6845 58.9834 29.6553L34.0605 52.1426L33.0908 62.4922L28.1855 47.4551L57.292 29.0918Z" fill="black"/>
</g>
<defs>
<clipPath id="clip0_50_687">
<rect width="86" height="86" fill="white"/>
</clipPath>
</defs>
</svg>
