<svg width="86" height="86" viewBox="0 0 86 86" fill="none" xmlns="http://www.w3.org/2000/svg">
<path d="M57.1543 0C67.3576 0 72.4596 0.000411051 76.3428 2.01758C79.6148 3.71737 82.2826 6.3852 83.9824 9.65723C85.9996 13.5404 86 18.6424 86 28.8457V57.1543C86 67.3576 85.9996 72.4596 83.9824 76.3428C82.2826 79.6148 79.6148 82.2826 76.3428 83.9824C72.4596 85.9996 67.3576 86 57.1543 86H28.8457C18.6424 86 13.5404 85.9996 9.65723 83.9824C6.3852 82.2826 3.71737 79.6148 2.01758 76.3428C0.000411051 72.4596 0 67.3576 0 57.1543V28.8457C0 18.6424 0.000410925 13.5404 2.01758 9.65723C3.71737 6.3852 6.3852 3.71737 9.65723 2.01758C13.5404 0.000410925 18.6424 0 28.8457 0H57.1543ZM43.9688 11.7744C27.0977 11.7744 13.3662 25.4974 13.3594 42.3652C13.3572 47.7574 14.7667 53.0206 17.4453 57.6602L13.1025 73.5137L29.3291 69.2588C33.7998 71.6961 38.8332 72.9807 43.9561 72.9824H43.9688C60.838 72.9824 74.5702 59.2579 74.5771 42.3896C74.5802 34.2154 71.399 26.5286 65.6201 20.7461C60.2025 15.325 53.1092 12.1856 45.4971 11.8115L43.9688 11.7744ZM43.9785 16.9414C50.7737 16.9436 57.1615 19.5919 61.9648 24.3984C66.768 29.2047 69.4118 35.5934 69.4092 42.3877C69.4036 56.4085 57.9909 67.8163 43.9688 67.8164H43.958C39.393 67.8146 34.9157 66.5883 31.0098 64.2715L30.0811 63.7207L20.4521 66.2451L23.0215 56.8613L22.417 55.8994C19.8704 51.8511 18.5254 47.1719 18.5273 42.3672C18.5329 28.3474 29.9456 16.9415 43.9785 16.9414ZM33.1318 28.2373C32.6219 28.2373 31.7938 28.4289 31.0928 29.1943C30.3917 29.9595 28.415 31.8089 28.415 35.5713C28.4152 39.3332 31.1548 42.9671 31.5381 43.4785C31.9205 43.9889 36.9315 51.71 44.6035 55.0215C46.4282 55.8091 47.8532 56.2795 48.9639 56.6318C50.7957 57.2134 52.4626 57.1314 53.7803 56.9346C55.2497 56.7151 58.3061 55.0852 58.9434 53.2998C59.5805 51.5143 59.5798 49.9842 59.3887 49.665C59.1975 49.346 58.6877 49.1541 57.9229 48.7715C57.1571 48.3884 53.3982 46.5395 52.6973 46.2842C51.9963 46.0295 51.4863 45.9022 50.9766 46.667C50.4668 47.4322 49.001 49.1548 48.5547 49.665C48.1088 50.1749 47.662 50.2381 46.8975 49.8555C46.132 49.4728 43.6676 48.6652 40.7471 46.0615C38.474 44.0349 36.9396 41.5323 36.4932 40.7666C36.0471 40.0014 36.4453 39.5871 36.8281 39.2061C37.1722 38.8634 37.5932 38.3135 37.9756 37.8672C38.358 37.421 38.4852 37.1017 38.7402 36.5918C38.995 36.0817 38.8678 35.6355 38.6768 35.2529C38.4855 34.8701 36.9556 31.1068 36.3184 29.5762C35.6975 28.0861 35.067 28.2882 34.5977 28.2646C34.1521 28.2426 33.6416 28.2373 33.1318 28.2373Z" fill="black"/>
</svg>
